<svg width="24" height="24" viewBox="0 0 24 24" fill="none" xmlns="http://www.w3.org/2000/svg">
<path d="M0 22.7368C0 23.0719 0.135459 23.3931 0.376577 23.63C0.617695 23.8669 0.944722 24 1.28571 24H22.7143C23.0553 24 23.3823 23.8669 23.6234 23.63C23.8645 23.3931 24 23.0719 24 22.7368V8H0V22.7368ZM17.1429 9.89474C17.1429 9.8389 17.1654 9.78535 17.2056 9.74587C17.2458 9.70639 17.3003 9.68421 17.3571 9.68421H19.5C19.5568 9.68421 19.6113 9.70639 19.6515 9.74587C19.6917 9.78535 19.7143 9.8389 19.7143 9.89474V12C19.7143 12.0558 19.6917 12.1094 19.6515 12.1489C19.6113 12.1883 19.5568 12.2105 19.5 12.2105H17.3571C17.3003 12.2105 17.2458 12.1883 17.2056 12.1489C17.1654 12.1094 17.1429 12.0558 17.1429 12V9.89474ZM17.1429 14.1053C17.1429 14.0494 17.1654 13.9959 17.2056 13.9564C17.2458 13.9169 17.3003 13.8947 17.3571 13.8947H19.5C19.5568 13.8947 19.6113 13.9169 19.6515 13.9564C19.6917 13.9959 19.7143 14.0494 19.7143 14.1053V16.2105C19.7143 16.2664 19.6917 16.3199 19.6515 16.3594C19.6113 16.3989 19.5568 16.4211 19.5 16.4211H17.3571C17.3003 16.4211 17.2458 16.3989 17.2056 16.3594C17.1654 16.3199 17.1429 16.2664 17.1429 16.2105V14.1053ZM12.8571 9.89474C12.8571 9.8389 12.8797 9.78535 12.9199 9.74587C12.9601 9.70639 13.0146 9.68421 13.0714 9.68421H15.2143C15.2711 9.68421 15.3256 9.70639 15.3658 9.74587C15.406 9.78535 15.4286 9.8389 15.4286 9.89474V12C15.4286 12.0558 15.406 12.1094 15.3658 12.1489C15.3256 12.1883 15.2711 12.2105 15.2143 12.2105H13.0714C13.0146 12.2105 12.9601 12.1883 12.9199 12.1489C12.8797 12.1094 12.8571 12.0558 12.8571 12V9.89474ZM12.8571 14.1053C12.8571 14.0494 12.8797 13.9959 12.9199 13.9564C12.9601 13.9169 13.0146 13.8947 13.0714 13.8947H15.2143C15.2711 13.8947 15.3256 13.9169 15.3658 13.9564C15.406 13.9959 15.4286 14.0494 15.4286 14.1053V16.2105C15.4286 16.2664 15.406 16.3199 15.3658 16.3594C15.3256 16.3989 15.2711 16.4211 15.2143 16.4211H13.0714C13.0146 16.4211 12.9601 16.3989 12.9199 16.3594C12.8797 16.3199 12.8571 16.2664 12.8571 16.2105V14.1053ZM12.8571 18.3158C12.8571 18.26 12.8797 18.2064 12.9199 18.1669C12.9601 18.1274 13.0146 18.1053 13.0714 18.1053H15.2143C15.2711 18.1053 15.3256 18.1274 15.3658 18.1669C15.406 18.2064 15.4286 18.26 15.4286 18.3158V20.4211C15.4286 20.4769 15.406 20.5304 15.3658 20.5699C15.3256 20.6094 15.2711 20.6316 15.2143 20.6316H13.0714C13.0146 20.6316 12.9601 20.6094 12.9199 20.5699C12.8797 20.5304 12.8571 20.4769 12.8571 20.4211V18.3158ZM8.57143 14.1053C8.57143 14.0494 8.594 13.9959 8.63419 13.9564C8.67438 13.9169 8.72888 13.8947 8.78571 13.8947H10.9286C10.9854 13.8947 11.0399 13.9169 11.0801 13.9564C11.1203 13.9959 11.1429 14.0494 11.1429 14.1053V16.2105C11.1429 16.2664 11.1203 16.3199 11.0801 16.3594C11.0399 16.3989 10.9854 16.4211 10.9286 16.4211H8.78571C8.72888 16.4211 8.67438 16.3989 8.63419 16.3594C8.594 16.3199 8.57143 16.2664 8.57143 16.2105V14.1053ZM8.57143 18.3158C8.57143 18.26 8.594 18.2064 8.63419 18.1669C8.67438 18.1274 8.72888 18.1053 8.78571 18.1053H10.9286C10.9854 18.1053 11.0399 18.1274 11.0801 18.1669C11.1203 18.2064 11.1429 18.26 11.1429 18.3158V20.4211C11.1429 20.4769 11.1203 20.5304 11.0801 20.5699C11.0399 20.6094 10.9854 20.6316 10.9286 20.6316H8.78571C8.72888 20.6316 8.67438 20.6094 8.63419 20.5699C8.594 20.5304 8.57143 20.4769 8.57143 20.4211V18.3158ZM4.28571 14.1053C4.28571 14.0494 4.30829 13.9959 4.34848 13.9564C4.38866 13.9169 4.44317 13.8947 4.5 13.8947H6.64286C6.69969 13.8947 6.75419 13.9169 6.79438 13.9564C6.83457 13.9959 6.85714 14.0494 6.85714 14.1053V16.2105C6.85714 16.2664 6.83457 16.3199 6.79438 16.3594C6.75419 16.3989 6.69969 16.4211 6.64286 16.4211H4.5C4.44317 16.4211 4.38866 16.3989 4.34848 16.3594C4.30829 16.3199 4.28571 16.2664 4.28571 16.2105V14.1053ZM4.28571 18.3158C4.28571 18.26 4.30829 18.2064 4.34848 18.1669C4.38866 18.1274 4.44317 18.1053 4.5 18.1053H6.64286C6.69969 18.1053 6.75419 18.1274 6.79438 18.1669C6.83457 18.2064 6.85714 18.26 6.85714 18.3158V20.4211C6.85714 20.4769 6.83457 20.5304 6.79438 20.5699C6.75419 20.6094 6.69969 20.6316 6.64286 20.6316H4.5C4.44317 20.6316 4.38866 20.6094 4.34848 20.5699C4.30829 20.5304 4.28571 20.4769 4.28571 20.4211V18.3158Z" fill="#C4C4C4"/>
<path d="M22.7143 1.71429H19.7186V0H17.1471V1.71429H6.85286V0H4.28143V1.71429H1.28571C1.11751 1.71287 0.950698 1.74475 0.794874 1.80809C0.63905 1.87144 0.4973 1.96498 0.377789 2.08335C0.258279 2.20171 0.16337 2.34256 0.0985316 2.49776C0.0336931 2.65297 0.000206084 2.81947 0 2.98768V6H24V2.98768C23.9998 2.81947 23.9663 2.65297 23.9015 2.49776C23.8366 2.34256 23.7417 2.20171 23.6222 2.08335C23.5027 1.96498 23.361 1.87144 23.2051 1.80809C23.0493 1.74475 22.8825 1.71287 22.7143 1.71429V1.71429Z" fill="#C4C4C4"/>
</svg>
