<svg width="124" height="24" viewBox="0 0 124 24" fill="none" xmlns="http://www.w3.org/2000/svg">
<path d="M11.7578 22H2.32422V5.19531H11.3828V7.5625H5.11328V12.3203H10.8906V14.6758H5.11328V19.6445H11.7578V22ZM27.5898 22H24.25L20.8047 15.8359C20.7031 15.6484 20.5898 15.3828 20.4648 15.0391H20.418C20.3477 15.2109 20.2305 15.4766 20.0664 15.8359L16.5156 22H13.1523L18.6602 13.5508L13.5977 5.19531H17.0078L20.043 10.8672C20.2383 11.2422 20.4141 11.6172 20.5703 11.9922H20.6055C20.832 11.5 21.0273 11.1094 21.1914 10.8203L24.3438 5.19531H27.4844L22.3047 13.5273L27.5898 22ZM36.4844 22.2812C34.0625 22.2812 32.1211 21.4961 30.6602 19.9258C29.207 18.3555 28.4805 16.3125 28.4805 13.7969C28.4805 11.0938 29.2227 8.9375 30.707 7.32812C32.1914 5.71875 34.207 4.91406 36.7539 4.91406C39.1133 4.91406 41.0117 5.69531 42.4492 7.25781C43.8945 8.82031 44.6172 10.8633 44.6172 13.3867C44.6172 16.1289 43.8789 18.2969 42.4023 19.8906C40.9258 21.4844 38.9531 22.2812 36.4844 22.2812ZM36.6133 7.36328C35.0742 7.36328 33.8203 7.9375 32.8516 9.08594C31.8906 10.2344 31.4102 11.7461 31.4102 13.6211C31.4102 15.4883 31.8789 16.9922 32.8164 18.1328C33.7539 19.2734 34.9805 19.8438 36.4961 19.8438C38.1055 19.8438 39.375 19.3008 40.3047 18.2148C41.2344 17.1289 41.6992 15.6094 41.6992 13.6562C41.6992 11.6484 41.2461 10.0977 40.3398 9.00391C39.4414 7.91016 38.1992 7.36328 36.6133 7.36328ZM57.4492 7.5625H52.6211V22H49.832V7.5625H45.0156V5.19531H57.4492V7.5625ZM62.7695 22H59.8984V5.19531H62.7695V22ZM78.6367 21.2969C77.3711 21.9531 75.7969 22.2812 73.9141 22.2812C71.4766 22.2812 69.5234 21.5117 68.0547 19.9727C66.5859 18.4336 65.8516 16.4141 65.8516 13.9141C65.8516 11.2266 66.6758 9.05469 68.3242 7.39844C69.9805 5.74219 72.0703 4.91406 74.5938 4.91406C76.2188 4.91406 77.5664 5.14453 78.6367 5.60547V8.37109C77.5039 7.69922 76.2539 7.36328 74.8867 7.36328C73.0664 7.36328 71.5898 7.94531 70.457 9.10938C69.332 10.2734 68.7695 11.8281 68.7695 13.7734C68.7695 15.625 69.2969 17.1016 70.3516 18.2031C71.4062 19.2969 72.793 19.8438 74.5117 19.8438C76.0977 19.8438 77.4727 19.4688 78.6367 18.7188V21.2969Z" fill="black"/>
<path d="M94.4375 21.5312C93.6094 21.9688 92.5781 22.1875 91.3438 22.1875C89.75 22.1875 88.474 21.6745 87.5156 20.6484C86.5573 19.6224 86.0781 18.276 86.0781 16.6094C86.0781 14.8177 86.6172 13.3698 87.6953 12.2656C88.7734 11.1615 90.1406 10.6094 91.7969 10.6094C92.8594 10.6094 93.7396 10.763 94.4375 11.0703V12.4688C93.6354 12.0208 92.75 11.7969 91.7812 11.7969C90.4948 11.7969 89.4505 12.2266 88.6484 13.0859C87.8516 13.9453 87.4531 15.0938 87.4531 16.5312C87.4531 17.8958 87.8255 18.9844 88.5703 19.7969C89.3203 20.6042 90.3021 21.0078 91.5156 21.0078C92.6406 21.0078 93.6146 20.7578 94.4375 20.2578V21.5312ZM105.391 22H103.938L102.75 18.8594H98L96.8828 22H95.4219L99.7188 10.7969H101.078L105.391 22ZM102.32 17.6797L100.562 12.9062C100.505 12.75 100.448 12.5 100.391 12.1562H100.359C100.307 12.474 100.247 12.724 100.18 12.9062L98.4375 17.6797H102.32ZM115.078 22H113.516L111.641 18.8594C111.469 18.5677 111.302 18.3203 111.141 18.1172C110.979 17.9089 110.812 17.7396 110.641 17.6094C110.474 17.4792 110.292 17.3854 110.094 17.3281C109.901 17.2656 109.682 17.2344 109.438 17.2344H108.359V22H107.047V10.7969H110.391C110.88 10.7969 111.331 10.8594 111.742 10.9844C112.159 11.1042 112.518 11.2891 112.82 11.5391C113.128 11.7891 113.367 12.1016 113.539 12.4766C113.711 12.8464 113.797 13.2812 113.797 13.7812C113.797 14.1719 113.737 14.5312 113.617 14.8594C113.503 15.1823 113.336 15.4714 113.117 15.7266C112.904 15.9818 112.643 16.2005 112.336 16.3828C112.034 16.5599 111.693 16.6979 111.312 16.7969V16.8281C111.5 16.9115 111.661 17.0078 111.797 17.1172C111.938 17.2214 112.07 17.3464 112.195 17.4922C112.32 17.638 112.443 17.8047 112.562 17.9922C112.688 18.1745 112.826 18.388 112.977 18.6328L115.078 22ZM108.359 11.9844V16.0469H110.141C110.469 16.0469 110.771 15.9974 111.047 15.8984C111.328 15.7995 111.57 15.6589 111.773 15.4766C111.977 15.2891 112.135 15.0625 112.25 14.7969C112.365 14.526 112.422 14.224 112.422 13.8906C112.422 13.2917 112.227 12.8255 111.836 12.4922C111.451 12.1536 110.891 11.9844 110.156 11.9844H108.359ZM116.102 21.5469V20C116.279 20.1562 116.49 20.2969 116.734 20.4219C116.984 20.5469 117.245 20.6536 117.516 20.7422C117.792 20.8255 118.068 20.8906 118.344 20.9375C118.62 20.9844 118.875 21.0078 119.109 21.0078C119.917 21.0078 120.518 20.8594 120.914 20.5625C121.315 20.2604 121.516 19.8281 121.516 19.2656C121.516 18.9635 121.448 18.7005 121.312 18.4766C121.182 18.2526 121 18.0495 120.766 17.8672C120.531 17.6797 120.253 17.5026 119.93 17.3359C119.612 17.1641 119.268 16.9844 118.898 16.7969C118.508 16.599 118.143 16.3984 117.805 16.1953C117.466 15.9922 117.172 15.7682 116.922 15.5234C116.672 15.2786 116.474 15.0026 116.328 14.6953C116.188 14.3828 116.117 14.0182 116.117 13.6016C116.117 13.0911 116.229 12.6484 116.453 12.2734C116.677 11.8932 116.971 11.5807 117.336 11.3359C117.701 11.0911 118.115 10.9089 118.578 10.7891C119.047 10.6693 119.523 10.6094 120.008 10.6094C121.112 10.6094 121.917 10.7422 122.422 11.0078V12.4844C121.76 12.026 120.911 11.7969 119.875 11.7969C119.589 11.7969 119.302 11.8281 119.016 11.8906C118.729 11.9479 118.474 12.0443 118.25 12.1797C118.026 12.3151 117.844 12.4896 117.703 12.7031C117.562 12.9167 117.492 13.1771 117.492 13.4844C117.492 13.7708 117.544 14.0182 117.648 14.2266C117.758 14.4349 117.917 14.625 118.125 14.7969C118.333 14.9688 118.586 15.1354 118.883 15.2969C119.185 15.4583 119.531 15.6354 119.922 15.8281C120.323 16.026 120.703 16.2344 121.062 16.4531C121.422 16.6719 121.737 16.9141 122.008 17.1797C122.279 17.4453 122.492 17.7396 122.648 18.0625C122.81 18.3854 122.891 18.7552 122.891 19.1719C122.891 19.724 122.781 20.1927 122.562 20.5781C122.349 20.9583 122.057 21.2682 121.688 21.5078C121.323 21.7474 120.901 21.9193 120.422 22.0234C119.943 22.1328 119.438 22.1875 118.906 22.1875C118.729 22.1875 118.51 22.1719 118.25 22.1406C117.99 22.1146 117.724 22.0729 117.453 22.0156C117.182 21.9635 116.924 21.8984 116.68 21.8203C116.44 21.737 116.247 21.6458 116.102 21.5469Z" fill="black"/>
</svg>
