<svg width="24" height="24" viewBox="0 0 24 24" fill="none" xmlns="http://www.w3.org/2000/svg">
<path fill-rule="evenodd" clip-rule="evenodd" d="M17.4537 9.81751C17.4537 10.8203 17.2562 11.8133 16.8724 12.7398C16.4887 13.6662 15.9262 14.508 15.2171 15.2171C14.508 15.9262 13.6662 16.4887 12.7398 16.8724C11.8133 17.2562 10.8203 17.4537 9.81751 17.4537C8.81471 17.4537 7.82173 17.2562 6.89526 16.8724C5.96879 16.4887 5.12699 15.9262 4.4179 15.2171C3.70881 14.508 3.14633 13.6662 2.76258 12.7398C2.37882 11.8133 2.1813 10.8203 2.18131 9.81751C2.18131 7.79226 2.98583 5.84997 4.4179 4.4179C5.84997 2.98583 7.79226 2.18131 9.81751 2.18131C11.8428 2.18131 13.7851 2.98583 15.2171 4.4179C16.6492 5.84997 17.4537 7.79226 17.4537 9.81751ZM15.9461 17.4886C13.9856 19.0549 11.4998 19.811 8.9992 19.6018C6.49861 19.3925 4.17305 18.2337 2.50015 16.3634C0.827243 14.493 -0.0660224 12.0531 0.00380592 9.54477C0.0736343 7.03641 1.10126 4.64999 2.87562 2.87562C4.64999 1.10126 7.03641 0.0736343 9.54477 0.00380592C12.0531 -0.0660224 14.493 0.827243 16.3634 2.50015C18.2337 4.17305 19.3925 6.49861 19.6018 8.9992C19.811 11.4998 19.0549 13.9856 17.4886 15.9461L23.6805 22.1358C23.7819 22.2372 23.8624 22.3576 23.9173 22.4902C23.9722 22.6227 24.0004 22.7647 24.0004 22.9082C24.0004 23.0516 23.9722 23.1936 23.9173 23.3261C23.8624 23.4587 23.7819 23.5791 23.6805 23.6805C23.5791 23.7819 23.4587 23.8624 23.3261 23.9173C23.1936 23.9722 23.0516 24.0004 22.9082 24.0004C22.7647 24.0004 22.6227 23.9722 22.4902 23.9173C22.3576 23.8624 22.2372 23.7819 22.1358 23.6805L15.9483 17.4886H15.9461Z" fill="#7B89F4"/>
</svg>
